<svg xmlns="http://www.w3.org/2000/svg" id="_图层_1" data-name="图层 1" viewBox="0 0 120 120">
  <defs>
    <style>
      .cls-1 {
        fill: rgb(253,226,193);
      }

      .cls-2 {
        fill: rgb(253,226,193);
      }

      .cls-3 {
        fill: rgb(253,226,193);
      }

      .cls-4 {
        fill: rgb(253,226,193);
      }

      .cls-5 {
        fill: rgb(253,226,193);
      }

      .cls-6 {
        fill: rgb(253,226,193);
      }

      .cls-7 {
        fill: none;
      }
    </style>
  </defs>
  <path class="cls-7" d="M0,0H120V120H0V0Z"/>
  <path class="cls-5" d="M10.25,65c-1.45-14.19,3.25-28.31,12.91-38.81l22.4,38.81H10.25"/>
  <path class="cls-4" d="M39.45,105.3c-12.99-5.87-22.87-17-27.16-30.6H57.12l-17.67,30.59h0Z"/>
  <path class="cls-1" d="M49.13,108.82l22.42-38.82,17.66,30.59c-8.5,6.14-18.72,9.43-29.21,9.41-3.73,0-7.36-.41-10.87-1.18Z"/>
  <path class="cls-3" d="M109.75,55c1.45,14.19-3.25,28.31-12.92,38.8l-22.4-38.8h35.31Z"/>
  <path class="cls-6" d="M80.55,14.4c12.99,5.87,22.87,17,27.16,30.6H62.88l17.67-30.59h0Z"/>
  <path class="cls-2" d="M30.8,19.42c8.5-6.14,18.72-9.43,29.2-9.42,3.73,0,7.36,.41,10.87,1.18l-22.42,38.82L30.8,19.42Z"/>
</svg>